<svg width="715" height="199" viewBox="0 0 715 199" fill="none" xmlns="http://www.w3.org/2000/svg">
<path d="M0.472 144.384C0.472 123.051 9.51733 104.789 27.608 89.6C17.0267 81.92 11.736 72.1067 11.736 60.16C11.736 46.848 16.344 35.1573 25.56 25.088C34.9467 14.848 48.5147 9.728 66.264 9.728C80.9413 9.728 92.376 13.312 100.568 20.48C108.76 27.648 112.856 36.5227 112.856 47.104C112.856 58.88 108.163 69.5467 98.776 79.104C116.696 92.7573 125.656 109.227 125.656 128.512C125.656 146.091 119.085 161.536 105.944 174.848C92.9733 187.989 75.8213 194.56 54.488 194.56C36.568 194.56 23.0853 189.781 14.04 180.224C4.99467 170.667 0.472 158.72 0.472 144.384ZM31.448 139.264C31.448 146.603 33.752 152.747 38.36 157.696C43.1387 162.475 50.0507 164.864 59.096 164.864C70.1893 164.864 78.808 161.536 84.952 154.88C91.2667 148.053 94.424 140.288 94.424 131.584C94.424 124.245 92.12 118.016 87.512 112.896C82.904 107.776 76.4187 105.216 68.056 105.216C58.6693 105.216 50.2213 108.373 42.712 114.688C35.2027 121.003 31.448 129.195 31.448 139.264ZM40.152 59.648C40.152 64.0853 41.5173 67.7547 44.248 70.656C47.1493 73.5573 51.2453 75.008 56.536 75.008C63.3627 75.008 69.2507 72.7893 74.2 68.352C79.32 63.744 81.88 58.2827 81.88 51.968C81.88 46.848 80.1733 42.6667 76.76 39.424C73.3467 36.0107 69.08 34.304 63.96 34.304C57.4747 34.304 51.8427 37.0347 47.064 42.496C42.456 47.7867 40.152 53.504 40.152 59.648Z" fill="#1F2937"/>
<path d="M132.702 46.592C132.702 39.7653 133.299 35.1573 134.494 32.768C136.713 28.16 141.491 23.7227 148.83 19.456C156.169 15.1893 166.067 13.056 178.526 13.056C184.499 13.056 189.193 13.824 192.606 15.36C194.995 20.3093 196.19 37.632 196.19 67.328C196.19 109.483 194.995 138.325 192.606 153.856C193.63 153.685 195.081 153.6 196.958 153.6C201.395 153.6 205.491 154.539 209.246 156.416C209.758 157.269 210.014 158.805 210.014 161.024C210.014 165.632 209.331 170.837 207.966 176.64C206.771 182.443 205.15 186.368 203.102 188.416C201.737 189.781 199.603 190.72 196.702 191.232C193.971 191.573 188.595 191.744 180.574 191.744C166.409 191.744 156.766 191.317 151.646 190.464C146.697 189.44 143.454 187.563 141.918 184.832C140.723 182.613 140.126 178.091 140.126 171.264C140.126 162.56 140.638 157.44 141.662 155.904L155.998 153.6C159.411 153.088 161.374 152.832 161.886 152.832C159.838 135.595 158.814 118.443 158.814 101.376C158.814 84.8213 159.838 68.352 161.886 51.968C154.035 57.4293 144.819 60.672 134.238 61.696C133.214 60.672 132.702 55.6373 132.702 46.592Z" fill="#1F2937"/>
<path d="M220.248 123.392C220.248 110.763 222.893 97.8773 228.184 84.736C233.475 71.5947 240.557 59.648 249.432 48.896C258.477 38.144 269.656 29.3547 282.968 22.528C296.28 15.7013 310.36 12.288 325.208 12.288C347.053 12.288 363.352 19.2 374.104 33.024C384.856 46.6773 390.232 64.1707 390.232 85.504C390.232 95.5733 389.037 105.643 386.648 115.712C384.429 125.781 380.76 135.595 375.64 145.152C370.52 154.539 364.291 162.901 356.952 170.24C349.784 177.579 340.824 183.467 330.072 187.904C319.491 192.341 307.8 194.56 295 194.56C272.131 194.56 253.955 187.904 240.472 174.592C226.989 161.28 220.248 144.213 220.248 123.392ZM261.464 119.808C261.464 132.267 264.792 142.251 271.448 149.76C278.104 157.099 286.808 160.768 297.56 160.768C308.824 160.768 319.235 156.587 328.792 148.224C338.349 139.861 345.603 129.963 350.552 118.528C355.501 107.093 357.976 96.0853 357.976 85.504C357.976 74.24 354.904 65.1093 348.76 58.112C342.787 50.944 333.997 47.36 322.392 47.36C310.445 47.36 299.693 51.2853 290.136 59.136C280.579 66.816 273.411 76.1173 268.632 87.04C263.853 97.9627 261.464 108.885 261.464 119.808Z" fill="#1F2937"/>
<path d="M398.472 131.328C398.472 122.965 400.264 114.773 403.848 106.752C407.603 98.56 412.808 91.0507 419.464 84.224C426.12 77.3973 434.824 71.8507 445.576 67.584C456.499 63.3173 468.531 61.184 481.672 61.184C485.768 61.184 488.925 61.2693 491.144 61.44L493.192 55.04C498.312 54.016 503.261 53.504 508.04 53.504C517.427 53.504 526.557 56.32 535.432 61.952C536.456 70.144 536.968 76.3733 536.968 80.64C536.968 93.2693 534.493 100.608 529.544 102.656C524.765 104.533 520.157 105.472 515.72 105.472C507.528 105.472 497.459 103.851 485.512 100.608L487.048 90.624C483.635 90.2827 480.904 90.112 478.856 90.112C466.397 90.112 455.56 93.6107 446.344 100.608C437.299 107.435 432.776 117.333 432.776 130.304C432.776 141.227 435.933 149.333 442.248 154.624C448.733 159.915 456.413 162.56 465.288 162.56C470.579 162.56 477.491 161.451 486.024 159.232L485.256 150.016C493.789 144.384 504.2 141.568 516.488 141.568C519.901 141.568 523.912 141.995 528.52 142.848C534.835 150.699 537.992 159.744 537.992 169.984C537.992 174.251 537.395 180.992 536.2 190.208C529.032 196.011 519.133 198.912 506.504 198.912C503.091 198.912 499.165 198.741 494.728 198.4L491.912 194.304C486.963 194.816 482.184 195.072 477.576 195.072C454.365 195.072 435.336 188.843 420.488 176.384C405.811 163.755 398.472 148.736 398.472 131.328Z" fill="#1F2937"/>
<path d="M536.802 28.416C536.802 15.4453 537.911 7.50932 540.13 4.60799C545.079 1.53599 555.917 -1.52588e-05 572.642 -1.52588e-05C577.591 -1.52588e-05 583.223 0.255987 589.538 0.76799C595.853 1.27999 599.181 1.70666 599.522 2.04799C601.229 4.94933 602.082 24.4053 602.082 60.416C602.082 71.68 601.826 77.9947 601.314 79.36C617.186 67.4133 633.655 61.44 650.722 61.44C665.058 61.44 676.663 66.1333 685.538 75.52C694.583 84.9067 699.106 99.6693 699.106 119.808C699.106 136.192 698.594 146.347 697.57 150.272C697.911 149.931 698.765 149.76 700.13 149.76C704.567 149.76 708.493 150.187 711.906 151.04C713.442 152.747 714.21 157.44 714.21 165.12C714.21 176.896 713.357 184.149 711.65 186.88C698.85 190.293 687.159 192 676.578 192C666.509 192 657.122 190.464 648.418 187.392C647.223 186.539 645.943 183.552 644.578 178.432C643.213 173.141 642.53 168.704 642.53 165.12C642.53 161.877 644.066 158.208 647.138 154.112C649.015 152.917 651.49 152.32 654.562 152.32C656.951 152.32 659.255 152.747 661.474 153.6C661.474 153.088 661.474 148.565 661.474 140.032C661.645 131.328 661.73 126.464 661.73 125.44C661.73 115.029 658.829 106.155 653.026 98.816C647.223 91.3067 639.714 87.552 630.498 87.552C613.602 87.552 605.154 101.803 605.154 130.304C605.154 133.547 605.41 141.824 605.922 155.136C607.97 153.941 610.615 153.344 613.858 153.344C616.93 153.344 618.807 153.771 619.49 154.624C621.197 154.624 622.05 158.037 622.05 164.864C622.05 166.571 621.965 167.936 621.794 168.96L620.77 174.336C620.429 176.896 620.002 179.883 619.49 183.296C606.349 189.099 589.282 192 568.29 192C553.783 192 544.738 189.611 541.154 184.832C539.618 182.784 538.85 179.797 538.85 175.872C538.85 161.365 545.847 154.112 559.842 154.112C563.597 154.112 566.925 154.453 569.826 155.136C568.973 115.883 568.546 81.664 568.546 52.48C568.546 42.24 568.717 36.608 569.058 35.584C568.375 35.584 567.351 35.6693 565.986 35.84C564.621 35.84 563.341 35.84 562.146 35.84C550.711 35.84 542.605 35.4987 537.826 34.816C537.143 34.1333 536.802 32 536.802 28.416Z" fill="#1F2937"/>
</svg>
