<?xml version="1.0" encoding="UTF-8" ?>
<svg version="1.1" width="480" height="480" xmlns="http://www.w3.org/2000/svg">
<rect x="0" y="0" width="30" height="30" fill="#000000" />
<rect x="30" y="0" width="30" height="30" fill="#000000" />
<rect x="60" y="0" width="30" height="30" fill="#000000" />
<rect x="90" y="0" width="30" height="30" fill="#000000" />
<rect x="0" y="30" width="30" height="30" fill="#000000" />
<rect x="30" y="30" width="30" height="30" fill="#A1887F" />
<rect x="60" y="30" width="30" height="30" fill="#A1887F" />
<rect x="90" y="30" width="30" height="30" fill="#BCAAA4" />
<rect x="120" y="30" width="30" height="30" fill="#000000" />
<rect x="0" y="60" width="30" height="30" fill="#000000" />
<rect x="30" y="60" width="30" height="30" fill="#A1887F" />
<rect x="60" y="60" width="30" height="30" fill="#BCAAA4" />
<rect x="90" y="60" width="30" height="30" fill="#BCAAA4" />
<rect x="120" y="60" width="30" height="30" fill="#AED581" />
<rect x="150" y="60" width="30" height="30" fill="#000000" />
<rect x="0" y="90" width="30" height="30" fill="#000000" />
<rect x="30" y="90" width="30" height="30" fill="#BCAAA4" />
<rect x="60" y="90" width="30" height="30" fill="#BCAAA4" />
<rect x="90" y="90" width="30" height="30" fill="#AED581" />
<rect x="120" y="90" width="30" height="30" fill="#AED581" />
<rect x="150" y="90" width="30" height="30" fill="#000000" />
<rect x="30" y="120" width="30" height="30" fill="#000000" />
<rect x="60" y="120" width="30" height="30" fill="#AED581" />
<rect x="90" y="120" width="30" height="30" fill="#AED581" />
<rect x="120" y="120" width="30" height="30" fill="#000000" />
<rect x="150" y="120" width="30" height="30" fill="#7CB342" />
<rect x="180" y="120" width="30" height="30" fill="#000000" />
<rect x="60" y="150" width="30" height="30" fill="#000000" />
<rect x="90" y="150" width="30" height="30" fill="#000000" />
<rect x="120" y="150" width="30" height="30" fill="#7CB342" />
<rect x="150" y="150" width="30" height="30" fill="#7CB342" />
<rect x="180" y="150" width="30" height="30" fill="#A1887F" />
<rect x="210" y="150" width="30" height="30" fill="#000000" />
<rect x="120" y="180" width="30" height="30" fill="#000000" />
<rect x="150" y="180" width="30" height="30" fill="#7CB342" />
<rect x="180" y="180" width="30" height="30" fill="#BCAAA4" />
<rect x="210" y="180" width="30" height="30" fill="#AED581" />
<rect x="240" y="180" width="30" height="30" fill="#000000" />
<rect x="150" y="210" width="30" height="30" fill="#000000" />
<rect x="180" y="210" width="30" height="30" fill="#7CB342" />
<rect x="210" y="210" width="30" height="30" fill="#7CB342" />
<rect x="240" y="210" width="30" height="30" fill="#7CB342" />
<rect x="270" y="210" width="30" height="30" fill="#000000" />
<rect x="180" y="240" width="30" height="30" fill="#000000" />
<rect x="210" y="240" width="30" height="30" fill="#A1887F" />
<rect x="240" y="240" width="30" height="30" fill="#BCAAA4" />
<rect x="270" y="240" width="30" height="30" fill="#7CB342" />
<rect x="300" y="240" width="30" height="30" fill="#000000" />
<rect x="210" y="270" width="30" height="30" fill="#000000" />
<rect x="240" y="270" width="30" height="30" fill="#AED581" />
<rect x="270" y="270" width="30" height="30" fill="#7CB342" />
<rect x="300" y="270" width="30" height="30" fill="#7CB342" />
<rect x="330" y="270" width="30" height="30" fill="#000000" />
<rect x="240" y="300" width="30" height="30" fill="#000000" />
<rect x="270" y="300" width="30" height="30" fill="#7CB342" />
<rect x="300" y="300" width="30" height="30" fill="#7CB342" />
<rect x="330" y="300" width="30" height="30" fill="#A1887F" />
<rect x="360" y="300" width="30" height="30" fill="#000000" />
<rect x="270" y="330" width="30" height="30" fill="#000000" />
<rect x="300" y="330" width="30" height="30" fill="#7CB342" />
<rect x="330" y="330" width="30" height="30" fill="#BCAAA4" />
<rect x="360" y="330" width="30" height="30" fill="#AED581" />
<rect x="390" y="330" width="30" height="30" fill="#000000" />
<rect x="300" y="360" width="30" height="30" fill="#000000" />
<rect x="330" y="360" width="30" height="30" fill="#7CB342" />
<rect x="360" y="360" width="30" height="30" fill="#7CB342" />
<rect x="390" y="360" width="30" height="30" fill="#7CB342" />
<rect x="420" y="360" width="30" height="30" fill="#000000" />
<rect x="330" y="390" width="30" height="30" fill="#000000" />
<rect x="360" y="390" width="30" height="30" fill="#7CB342" />
<rect x="390" y="390" width="30" height="30" fill="#7CB342" />
<rect x="420" y="390" width="30" height="30" fill="#7CB342" />
<rect x="450" y="390" width="30" height="30" fill="#000000" />
<rect x="360" y="420" width="30" height="30" fill="#000000" />
<rect x="390" y="420" width="30" height="30" fill="#7CB342" />
<rect x="420" y="420" width="30" height="30" fill="#000000" />
<rect x="390" y="450" width="30" height="30" fill="#000000" />
</svg>